<svg width="320" height="320" viewBox="0 0 320 320" fill="none" xmlns="http://www.w3.org/2000/svg">
<circle cx="160" cy="160" r="160" fill="white"/>
<circle cx="160.321" cy="13.2426" r="3" transform="rotate(45 160.321 13.2426)" fill="black" fill-opacity="0.08"/>
<circle cx="141.936" cy="32.6569" r="4" transform="rotate(45 141.936 32.6569)" fill="black" fill-opacity="0.1"/>
<circle cx="123.551" cy="53.0711" r="5" transform="rotate(45 123.551 53.0711)" fill="black" fill-opacity="0.2"/>
<circle cx="105.167" cy="72.4853" r="6" transform="rotate(45 105.167 72.4853)" fill="black" fill-opacity="0.4"/>
<circle cx="86.7817" cy="92.8995" r="7" transform="rotate(45 86.7817 92.8995)" fill="black" fill-opacity="0.4"/>
<circle cx="68.397" cy="113.485" r="6" transform="rotate(45 68.397 113.485)" fill="black" fill-opacity="0.4"/>
<circle cx="50.0122" cy="132.071" r="5" transform="rotate(45 50.0122 132.071)" fill="black" fill-opacity="0.2"/>
<circle cx="31.6274" cy="150.657" r="4" transform="rotate(45 31.6274 150.657)" fill="black" fill-opacity="0.1"/>
<circle cx="13.2427" cy="169.243" r="3" transform="rotate(45 13.2427 169.243)" fill="black" fill-opacity="0.08"/>
<circle cx="105.167" cy="112.238" r="8" transform="rotate(45 105.167 112.238)" fill="black"/>
<circle cx="178.706" cy="32.6569" r="4" transform="rotate(45 178.706 32.6569)" fill="black" fill-opacity="0.1"/>
<circle cx="160.321" cy="53.0711" r="5" transform="rotate(45 160.321 53.0711)" fill="black" fill-opacity="0.2"/>
<circle cx="141.936" cy="72.4853" r="6" transform="rotate(45 141.936 72.4853)" fill="black" fill-opacity="0.4"/>
<circle cx="123.551" cy="92.8995" r="7" transform="rotate(45 123.551 92.8995)" fill="black" fill-opacity="0.4"/>
<circle cx="105.167" cy="113.728" r="9" transform="rotate(45 105.167 113.728)" fill="black"/>
<circle cx="86.7817" cy="131.899" r="7" transform="rotate(45 86.7817 131.899)" fill="black" fill-opacity="0.4"/>
<circle cx="68.397" cy="150.485" r="6" transform="rotate(45 68.397 150.485)" fill="black" fill-opacity="0.4"/>
<circle cx="50.0122" cy="169.071" r="5" transform="rotate(45 50.0122 169.071)" fill="black" fill-opacity="0.1"/>
<circle cx="31.6274" cy="187.657" r="4" transform="rotate(45 31.6274 187.657)" fill="black" fill-opacity="0.1"/>
<circle cx="197.09" cy="53.0711" r="5" transform="rotate(45 197.09 53.0711)" fill="black" fill-opacity="0.2"/>
<circle cx="178.706" cy="72.4853" r="6" transform="rotate(45 178.706 72.4853)" fill="black" fill-opacity="0.4"/>
<circle cx="160.321" cy="92.4853" r="6" transform="rotate(45 160.321 92.4853)" fill="black" fill-opacity="0.4"/>
<circle cx="141.936" cy="113.899" r="7" transform="rotate(45 141.936 113.899)" fill="black" fill-opacity="0.4"/>
<circle cx="123.551" cy="131.728" r="9" transform="rotate(45 123.551 131.728)" fill="black"/>
<circle cx="105.167" cy="150.728" r="9" transform="rotate(45 105.167 150.728)" fill="black"/>
<circle cx="86.7817" cy="168.899" r="7" transform="rotate(45 86.7817 168.899)" fill="black" fill-opacity="0.4"/>
<circle cx="68.397" cy="187.485" r="6" transform="rotate(45 68.397 187.485)" fill="black" fill-opacity="0.4"/>
<circle cx="50.0122" cy="203.071" r="5" transform="rotate(45 50.0122 203.071)" fill="black" fill-opacity="0.2"/>
<circle cx="215.475" cy="72.4853" r="6" transform="rotate(45 215.475 72.4853)" fill="black" fill-opacity="0.4"/>
<circle cx="197.09" cy="92.8995" r="7" transform="rotate(45 197.09 92.8995)" fill="black" fill-opacity="0.4"/>
<circle cx="178.706" cy="113.899" r="7" transform="rotate(45 178.706 113.899)" fill="black" fill-opacity="0.4"/>
<circle cx="160.321" cy="131.899" r="7" transform="rotate(45 160.321 131.899)" fill="black" fill-opacity="0.4"/>
<circle cx="141.936" cy="150.728" r="9" transform="rotate(45 141.936 150.728)" fill="black"/>
<circle cx="123.551" cy="168.899" r="7" transform="rotate(45 123.551 168.899)" fill="black" fill-opacity="0.4"/>
<circle cx="105.167" cy="186.728" r="9" transform="rotate(45 105.167 186.728)" fill="black"/>
<circle cx="86.7817" cy="202.899" r="7" transform="rotate(45 86.7817 202.899)" fill="black" fill-opacity="0.4"/>
<circle cx="68.397" cy="223.485" r="6" transform="rotate(45 68.397 223.485)" fill="black" fill-opacity="0.4"/>
<circle cx="233.86" cy="92.8995" r="7" transform="rotate(45 233.86 92.8995)" fill="black" fill-opacity="0.4"/>
<circle cx="215.475" cy="113.728" r="9" transform="rotate(45 215.475 113.728)" fill="black"/>
<circle cx="197.09" cy="131.728" r="9" transform="rotate(45 197.09 131.728)" fill="black"/>
<circle cx="178.706" cy="150.728" r="9" transform="rotate(45 178.706 150.728)" fill="black"/>
<circle cx="160.321" cy="168.728" r="9" transform="rotate(45 160.321 168.728)" fill="black"/>
<circle cx="141.936" cy="186.899" r="7" transform="rotate(45 141.936 186.899)" fill="black" fill-opacity="0.4"/>
<circle cx="123.551" cy="202.899" r="7" transform="rotate(45 123.551 202.899)" fill="black" fill-opacity="0.4"/>
<circle cx="105.167" cy="223.728" r="9" transform="rotate(45 105.167 223.728)" fill="black"/>
<circle cx="86.7817" cy="239.899" r="7" transform="rotate(45 86.7817 239.899)" fill="black" fill-opacity="0.4"/>
<circle cx="252.245" cy="113.485" r="6" transform="rotate(45 252.245 113.485)" fill="black" fill-opacity="0.4"/>
<circle cx="233.86" cy="131.899" r="7" transform="rotate(45 233.86 131.899)" fill="black" fill-opacity="0.4"/>
<circle cx="215.475" cy="150.728" r="9" transform="rotate(45 215.475 150.728)" fill="black"/>
<circle cx="197.09" cy="168.899" r="7" transform="rotate(45 197.09 168.899)" fill="black" fill-opacity="0.4"/>
<circle cx="178.706" cy="186.899" r="7" transform="rotate(45 178.706 186.899)" fill="black" fill-opacity="0.4"/>
<circle cx="160.321" cy="202.899" r="7" transform="rotate(45 160.321 202.899)" fill="black" fill-opacity="0.4"/>
<circle cx="141.936" cy="223.485" r="6" transform="rotate(45 141.936 223.485)" fill="black" fill-opacity="0.4"/>
<circle cx="123.551" cy="239.899" r="7" transform="rotate(45 123.551 239.899)" fill="black" fill-opacity="0.4"/>
<circle cx="105.167" cy="256.485" r="6" transform="rotate(45 105.167 256.485)" fill="black" fill-opacity="0.4"/>
<circle cx="270.63" cy="132.071" r="5" transform="rotate(45 270.63 132.071)" fill="black" fill-opacity="0.2"/>
<circle cx="252.245" cy="150.485" r="6" transform="rotate(45 252.245 150.485)" fill="black" fill-opacity="0.4"/>
<circle cx="233.86" cy="168.899" r="7" transform="rotate(45 233.86 168.899)" fill="black" fill-opacity="0.4"/>
<circle cx="215.475" cy="186.728" r="9" transform="rotate(45 215.475 186.728)" fill="black"/>
<circle cx="197.09" cy="202.899" r="7" transform="rotate(45 197.09 202.899)" fill="black" fill-opacity="0.4"/>
<circle cx="178.706" cy="223.485" r="6" transform="rotate(45 178.706 223.485)" fill="black" fill-opacity="0.4"/>
<circle cx="160.321" cy="239.485" r="6" transform="rotate(45 160.321 239.485)" fill="black" fill-opacity="0.4"/>
<circle cx="141.936" cy="256.485" r="6" transform="rotate(45 141.936 256.485)" fill="black" fill-opacity="0.4"/>
<circle cx="123.551" cy="273.071" r="5" transform="rotate(45 123.551 273.071)" fill="black" fill-opacity="0.2"/>
<circle cx="289.014" cy="150.657" r="4" transform="rotate(45 289.014 150.657)" fill="black" fill-opacity="0.1"/>
<circle cx="270.63" cy="169.071" r="5" transform="rotate(45 270.63 169.071)" fill="black" fill-opacity="0.2"/>
<circle cx="252.245" cy="187.485" r="6" transform="rotate(45 252.245 187.485)" fill="black" fill-opacity="0.4"/>
<circle cx="233.86" cy="202.899" r="7" transform="rotate(45 233.86 202.899)" fill="black" fill-opacity="0.4"/>
<circle cx="215.475" cy="223.728" r="9" transform="rotate(45 215.475 223.728)" fill="black"/>
<circle cx="197.09" cy="239.899" r="7" transform="rotate(45 197.09 239.899)" fill="black" fill-opacity="0.4"/>
<circle cx="178.706" cy="256.485" r="6" transform="rotate(45 178.706 256.485)" fill="black" fill-opacity="0.4"/>
<circle opacity="0.3" cx="160.321" cy="273.071" r="5" transform="rotate(45 160.321 273.071)" fill="black"/>
<circle cx="141.936" cy="290.657" r="4" transform="rotate(45 141.936 290.657)" fill="black" fill-opacity="0.1"/>
<circle cx="307.399" cy="169.243" r="3" transform="rotate(45 307.399 169.243)" fill="black" fill-opacity="0.08"/>
<circle cx="289.014" cy="187.657" r="4" transform="rotate(45 289.014 187.657)" fill="black" fill-opacity="0.1"/>
<circle cx="270.63" cy="203.071" r="5" transform="rotate(45 270.63 203.071)" fill="black" fill-opacity="0.2"/>
<circle cx="252.245" cy="223.485" r="6" transform="rotate(45 252.245 223.485)" fill="black" fill-opacity="0.4"/>
<circle cx="233.86" cy="239.899" r="7" transform="rotate(45 233.86 239.899)" fill="black" fill-opacity="0.4"/>
<circle cx="215.475" cy="256.485" r="6" transform="rotate(45 215.475 256.485)" fill="black" fill-opacity="0.4"/>
<circle cx="197.09" cy="273.071" r="5" transform="rotate(45 197.09 273.071)" fill="black" fill-opacity="0.2"/>
<circle cx="178.706" cy="290.657" r="4" transform="rotate(45 178.706 290.657)" fill="black" fill-opacity="0.1"/>
<circle cx="160.321" cy="307.399" r="3" transform="rotate(45 160.321 307.399)" fill="black" fill-opacity="0.08"/>
</svg>
