<svg width="1646" height="252" viewBox="0 0 1646 252" fill="none" xmlns="http://www.w3.org/2000/svg">
<path d="M289.203 248.07L289.224 248.089H247.536L247.536 65.9872C247.536 56.7242 234.476 55.0254 232.148 63.9725L184.205 248.088L105.037 248.088L57.075 63.9725C54.7474 55.0254 41.6872 56.7242 41.6872 65.9872L41.6872 248.088H4.29397e-05L0 5.10808e-05L82.3957 3.65276e-05L137.161 213.861C139.177 221.761 150.302 221.761 152.315 213.861L206.809 1.45528e-05L289.202 0L289.203 248.07ZM478.57 159.941C478.57 214.117 444.647 252 390.681 252C336.715 252 303.106 214.452 303.106 159.941C303.106 105.765 337.029 68.2183 390.681 68.2183C444.332 68.2183 478.57 105.765 478.57 159.941ZM437.216 159.941C437.216 121.427 420.735 96.936 390.681 96.936C360.627 96.936 344.145 121.427 344.145 159.941C344.145 198.455 360.941 223.261 390.681 223.261C420.42 223.261 437.216 198.77 437.216 159.941ZM611.37 72.1493V72.169L567.788 218.206C565.541 225.671 555.059 225.691 552.811 218.206L508.934 72.1493L468.538 72.1493L522.505 248.088H598.115L652.079 72.1493L611.37 72.1493ZM813.017 158.953C813.017 162.864 812.684 167.446 812.038 172.008V172.028L692.435 172.028C687.489 172.028 683.833 176.61 684.77 181.528C690.089 209.199 706.201 223.281 728.335 223.281C750.468 223.281 761.945 213.169 768.085 196.183H809.127C798.137 233.731 768.73 252 728.022 252C674.702 252 642.38 213.485 642.38 159.941C642.38 106.397 675.66 68.2185 728.022 68.2185C780.385 68.2185 813.017 104.125 813.017 158.953ZM770.314 134.028C765.583 111.393 749.92 96.9556 728.002 96.9556C706.084 96.9556 691.634 108.865 685.554 133.83C684.341 138.807 688.075 143.627 693.159 143.627L762.669 143.627C767.656 143.627 771.35 138.965 770.314 134.028ZM1026.3 68.2182C1002.85 68.2182 987.523 80.7008 978.373 96.1063C975.244 101.34 967.834 101.301 964.803 96.0075C955.828 80.3059 940.245 68.2182 917.388 68.2182C899.732 68.2182 886.964 75.0521 877.911 85.0854C873.123 90.3788 864.382 86.8632 864.382 79.6937V72.149H824.319V248.089H864.713L864.713 145.918C864.713 112.302 876.661 97.2917 899.282 97.2917C921.903 97.2917 933.538 112.302 933.538 145.266V248.088H973.934V145.918C973.934 112.302 985.882 97.2914 1008.5 97.2914C1031.12 97.2914 1042.76 112.302 1042.76 145.266V248.088H1083.16V137.425H1083.18C1083.18 97.2717 1065.07 68.2182 1026.3 68.2182ZM1263.78 158.953C1263.78 162.864 1263.45 167.446 1262.81 172.008V172.028L1143.2 172.028C1138.25 172.028 1134.6 176.61 1135.54 181.528C1140.86 209.199 1156.97 223.281 1179.1 223.281C1201.23 223.281 1212.71 213.169 1218.85 196.183H1259.89C1248.9 233.73 1219.5 252 1178.79 252C1125.47 252 1093.15 213.485 1093.15 159.941C1093.15 106.397 1126.43 68.2184 1178.79 68.2184C1231.15 68.2184 1263.78 104.125 1263.78 158.953ZM1221.08 134.028C1216.35 111.393 1200.69 96.9555 1178.77 96.9555C1156.85 96.9555 1142.4 108.865 1136.32 133.83C1135.11 138.807 1138.84 143.626 1143.92 143.626L1213.44 143.626C1218.42 143.626 1222.12 138.965 1221.08 134.028ZM1370.42 68.2386C1351.93 68.2386 1338.34 75.1513 1328.74 85.481C1323.85 90.7348 1315.15 87.3574 1315.15 80.1485V72.1494L1275.08 72.1494V248.088L1315.48 248.088V145.918C1315.48 112.303 1329.38 97.2919 1352.32 97.2919C1375.25 97.2919 1389.15 111.967 1389.15 145.266L1389.15 248.088L1429.55 248.088V137.445C1429.55 98.2599 1410.49 68.2386 1370.42 68.2386ZM1505.53 217.751L1505.55 217.731C1490.69 217.731 1481.95 212.833 1481.95 195.867V110.09C1481.95 105.725 1485.45 102.19 1489.77 102.19L1523.3 102.19V72.1685L1489.77 72.1685C1485.45 72.1685 1481.95 68.633 1481.95 64.2682V30.3958L1441.56 30.3958L1441.56 197.842C1441.56 232.111 1466.44 248.107 1498.75 248.107L1523.95 248.107V217.751H1505.53Z" fill="black"/>
<path d="M1635.61 64.7393C1634.79 64.7393 1633.98 64.6121 1633.21 64.3627L1633.11 64.3335C1633.02 64.3084 1632.93 64.2792 1632.83 64.2437C1632.6 64.1644 1632.35 64.0487 1632.07 63.8943L1631.98 63.8442C1630.95 63.3048 1630.04 62.5286 1629.34 61.5981C1627.2 58.7596 1627.21 54.8017 1629.36 51.9725C1630.23 50.8219 1631.4 49.934 1632.73 49.4041L1632.86 49.3488C1633.26 49.1778 1633.55 49.0849 1633.78 49.0557L1634.03 49.0139C1634.55 48.9075 1635.08 48.8533 1635.61 48.8533C1638.82 48.8533 1641.5 47.8528 1643.36 45.9615C1645.09 44.2111 1645.98 41.8012 1645.96 38.9919V29.0179L1626.36 29.0179V35.5921C1626.36 36.8721 1626.35 38.1522 1626.36 39.4322C1626.36 42.0204 1624.91 45.5537 1622.24 46.453C1620.54 47.0257 1618.44 46.1703 1616.63 46.38C1615.15 46.5521 1613.71 47.0632 1612.45 47.8676C1609.92 49.4835 1608.21 52.2324 1607.88 55.2399C1607.75 56.4 1607.82 57.2648 1607.88 57.897C1607.94 58.6012 1607.95 58.813 1607.71 59.515C1607.23 60.8858 1606.2 62.1596 1604.82 63.1005C1603.44 64.0415 1601.85 64.5589 1600.35 64.5589L1600.2 64.5568L1600.05 64.5589C1598.55 64.5589 1596.96 64.0415 1595.58 63.1005C1594.2 62.1606 1593.17 60.8858 1592.69 59.515C1592.45 58.8129 1592.47 58.6001 1592.53 57.897C1592.58 57.2659 1592.65 56.4011 1592.52 55.2399C1592.19 52.2324 1590.48 49.4846 1587.95 47.8676C1586.69 47.0632 1585.25 46.5521 1583.77 46.38C1581.97 46.1703 1579.86 47.0258 1578.16 46.453C1575.5 45.5538 1574.04 42.0204 1574.05 39.4322C1574.05 38.1522 1574.05 36.8722 1574.05 35.5922V29.0179L1554.44 29.0179V38.992C1554.42 41.8013 1555.32 44.2111 1557.04 45.9616C1558.9 47.854 1561.58 48.8533 1564.79 48.8533C1565.32 48.8533 1565.85 48.9076 1566.37 49.014L1566.62 49.0557C1566.85 49.086 1567.14 49.1788 1567.54 49.3489L1567.67 49.4042C1569 49.9341 1570.17 50.8219 1571.04 51.9725C1573.19 54.8017 1573.2 58.7596 1571.06 61.5982C1570.36 62.5287 1569.44 63.3049 1568.42 63.8443L1568.33 63.8944C1568.05 64.0488 1567.8 64.1635 1567.57 64.2438C1567.47 64.2793 1567.38 64.3085 1567.29 64.3336L1567.19 64.3628C1566.42 64.6132 1565.61 64.7394 1564.79 64.7394C1558.57 64.7394 1554.4 68.5951 1554.4 74.3337C1554.4 78.8132 1556.42 81.1376 1558.12 82.2986C1560.19 83.7153 1562.69 84.1169 1565.08 84.3381L1565.25 84.3568C1565.88 84.4403 1566.42 84.5717 1567.03 84.795L1567.33 84.9087L1567.38 84.9275C1568.99 85.4825 1570.34 86.6164 1571.18 88.1207C1571.66 88.9709 1571.99 90.084 1572.11 91.2535C1572.16 91.7135 1572.19 92.159 1572.22 92.5992C1572.24 92.9341 1572.27 93.3096 1572.31 93.6872V102.327H1591.77V92.1537C1591.77 89.5394 1590.78 87.0034 1588.95 85.1548C1588.89 85.0881 1588.82 85.0234 1588.75 84.9587C1588.61 84.821 1588.47 84.7042 1588.36 84.6113L1588.3 84.5539C1586.19 82.7096 1583.44 82.6605 1581.44 82.624H1581.42C1581.08 82.6177 1580.77 82.6115 1580.49 82.5979L1580.19 82.551L1579.54 82.406L1578.93 82.2171L1578.28 81.9542C1577.59 81.6403 1576.95 81.2313 1576.39 80.7441L1576.26 80.6335C1574.45 78.9978 1573.55 76.9812 1573.51 74.4703C1573.51 72.676 1574.08 70.9756 1575.15 69.5516C1576.2 68.1641 1577.68 67.1314 1579.32 66.6431C1580.98 66.1496 1584.08 66.1371 1585.58 66.6191C1588.3 67.4965 1590.24 70.0189 1590.39 72.8961C1590.4 73.1339 1590.39 73.3833 1590.38 73.6753C1590.35 74.5192 1590.31 75.6752 1590.79 77.1366C1592.16 81.2009 1595.93 83.9436 1600.2 83.9623C1604.46 83.9426 1608.24 81.2009 1609.6 77.1366C1610.09 75.6762 1610.05 74.5203 1610.01 73.6753C1610 73.3832 1609.99 73.1328 1610.01 72.8961C1610.16 70.0189 1612.09 67.4964 1614.82 66.6191C1616.31 66.1372 1619.41 66.1496 1621.08 66.6431C1622.72 67.1313 1624.2 68.1651 1625.24 69.5516C1626.31 70.9756 1626.88 72.676 1626.89 74.4703C1626.85 76.9812 1625.95 78.9967 1624.14 80.6335L1624.01 80.7441C1623.44 81.2302 1622.8 81.6402 1622.12 81.9542L1621.46 82.2171L1620.86 82.406L1620.21 82.551L1619.91 82.5979C1619.63 82.6115 1619.31 82.6177 1618.98 82.624H1618.96C1616.95 82.6605 1614.21 82.7096 1612.1 84.5539L1612.03 84.6113C1611.93 84.7042 1611.79 84.821 1611.65 84.9587C1611.58 85.0233 1611.51 85.0891 1611.44 85.1548C1609.61 87.0034 1608.63 89.5394 1608.63 92.1537V102.327H1628.09V93.6872C1628.13 93.3106 1628.15 92.934 1628.18 92.5992C1628.21 92.16 1628.24 91.7145 1628.29 91.2534C1628.41 90.084 1628.74 88.9709 1629.21 88.1207C1630.05 86.6164 1631.4 85.4824 1633.01 84.9274L1633.07 84.9087L1633.36 84.795C1633.98 84.5728 1634.51 84.4413 1635.15 84.3568L1635.31 84.3381C1637.71 84.117 1640.2 83.7153 1642.28 82.2986C1643.97 81.1375 1646 78.8132 1646 74.3337C1646 68.5951 1641.82 64.7394 1635.61 64.7394L1635.61 64.7393Z" fill="black"/>
</svg>
