<svg width="177" height="27" viewBox="0 0 177 27" fill="none" xmlns="http://www.w3.org/2000/svg">
<path d="M30.986 26.5789L30.9882 26.5809H26.5218L26.5217 7.07006C26.5217 6.07759 25.1224 5.89557 24.8731 6.85419L19.7362 26.5809L11.254 26.5809L6.11518 6.8542C5.8658 5.89558 4.46649 6.07759 4.46649 7.07006L4.46649 26.5809H4.60069e-06L0 5.47295e-06L8.82811 3.91367e-06L14.6959 22.9137C14.9118 23.7601 16.1038 23.7601 16.3194 22.9137L22.1581 1.55923e-06L30.986 0L30.986 26.5789ZM51.2754 17.1365C51.2754 22.9411 47.6407 27 41.8587 27C36.0766 27 32.4757 22.977 32.4757 17.1365C32.4757 11.3319 36.1103 7.30911 41.8587 7.3091C47.607 7.3091 51.2754 11.3319 51.2754 17.1365ZM46.8446 17.1365C46.8446 13.01 45.0787 10.386 41.8587 10.386C38.6386 10.386 36.8727 13.01 36.8727 17.1365C36.8727 21.263 38.6723 23.9209 41.8587 23.9209C45.045 23.9209 46.8446 21.2968 46.8446 17.1365ZM65.504 7.73028V7.73239L60.8344 23.3792C60.5936 24.1791 59.4706 24.1812 59.2298 23.3792L54.5287 7.73028L50.2005 7.73028L55.9826 26.5809H64.0838L69.8656 7.73028L65.504 7.73028ZM87.1089 17.0307C87.1089 17.4497 87.0732 17.9406 87.0041 18.4295V18.4316H74.1895C73.6595 18.4316 73.2678 18.9225 73.3683 19.4494C73.9382 22.4142 75.6644 23.923 78.0359 23.923C80.4073 23.923 81.637 22.8395 82.2948 21.0196H86.6921C85.5146 25.0426 82.364 27 78.0024 27C72.2895 27 68.8264 22.8734 68.8264 17.1365C68.8264 11.3997 72.3921 7.30913 78.0024 7.30913C83.6126 7.30913 87.1089 11.1563 87.1089 17.0307ZM82.5336 14.3601C82.0267 11.935 80.3485 10.3881 78.0002 10.3881C75.6518 10.3881 74.1036 11.6642 73.4522 14.3389C73.3222 14.8722 73.7223 15.3886 74.2671 15.3886L81.7146 15.3886C82.2488 15.3886 82.6447 14.8891 82.5336 14.3601ZM109.96 7.30909C107.449 7.30909 105.806 8.64652 104.826 10.2971C104.49 10.8579 103.696 10.8536 103.372 10.2865C102.41 8.6042 100.741 7.30909 98.2915 7.30909C96.3999 7.30909 95.0318 8.0413 94.0619 9.11629C93.5489 9.68344 92.6124 9.30678 92.6124 8.53862V7.73025H88.3199V26.5809H92.6478L92.6478 15.6341C92.6478 12.0324 93.928 10.4241 96.3516 10.4241C98.7753 10.4241 100.022 12.0324 100.022 15.5642V26.5809H104.35V15.634C104.35 12.0323 105.63 10.4241 108.054 10.4241C110.478 10.4241 111.724 12.0323 111.724 15.5642V26.5809H116.052V14.7241H116.055C116.055 10.422 114.115 7.30909 109.96 7.30909ZM135.405 17.0307C135.405 17.4497 135.37 17.9406 135.301 18.4295V18.4316L122.486 18.4316C121.956 18.4316 121.564 18.9225 121.665 19.4494C122.234 22.4142 123.961 23.923 126.332 23.923C128.704 23.923 129.933 22.8395 130.591 21.0196H134.989C133.811 25.0425 130.66 27 126.299 27C120.586 27 117.123 22.8734 117.123 17.1365C117.123 11.3997 120.688 7.30912 126.299 7.30912C131.909 7.30912 135.405 11.1563 135.405 17.0307ZM130.83 14.3601C130.323 11.935 128.645 10.3881 126.296 10.3881C123.948 10.3881 122.4 11.6642 121.749 14.3389C121.619 14.8722 122.019 15.3886 122.563 15.3886L130.011 15.3886C130.545 15.3886 130.941 14.8891 130.83 14.3601ZM146.831 7.31128C144.849 7.31128 143.393 8.05192 142.365 9.15868C141.841 9.72159 140.909 9.35972 140.909 8.58734V7.73029L136.616 7.7303V26.5809L140.944 26.5809V15.6341C140.944 12.0324 142.434 10.4241 144.891 10.4241C147.349 10.4241 148.838 11.9965 148.838 15.5643L148.838 26.5809H153.166V14.7263C153.166 10.5278 151.124 7.31128 146.831 7.31128ZM161.307 23.3304L161.309 23.3283C159.717 23.3283 158.78 22.8035 158.78 20.9858V11.7953C158.78 11.3277 159.155 10.9489 159.618 10.9489L163.211 10.9489V7.73234L159.618 7.73234C159.155 7.73234 158.78 7.35354 158.78 6.88588V3.25669L154.452 3.25669L154.452 21.1974C154.452 24.869 157.119 26.5829 160.58 26.5829L163.28 26.5829V23.3304H161.307Z" fill="white"/>
<path d="M175.244 6.93635C175.156 6.93635 175.069 6.92272 174.987 6.89601L174.976 6.89287C174.967 6.89019 174.957 6.88706 174.946 6.88326C174.921 6.87476 174.895 6.86236 174.865 6.84582L174.855 6.84045C174.745 6.78266 174.648 6.6995 174.572 6.5998C174.343 6.29567 174.344 5.87161 174.574 5.56848C174.668 5.4452 174.793 5.35007 174.935 5.29329L174.949 5.28738C174.992 5.26905 175.023 5.2591 175.048 5.25596L175.075 5.25149C175.13 5.24009 175.187 5.23428 175.244 5.23428C175.588 5.23428 175.875 5.12709 176.075 4.92445C176.259 4.7369 176.355 4.4787 176.353 4.1777V3.10906L174.253 3.10906V3.81344C174.253 3.95059 174.252 4.08773 174.253 4.22488C174.253 4.50219 174.097 4.88075 173.812 4.97711C173.63 5.03847 173.404 4.94682 173.211 4.96928C173.052 4.98773 172.898 5.04249 172.763 5.12867C172.491 5.30181 172.308 5.59632 172.273 5.91856C172.259 6.04286 172.267 6.13551 172.273 6.20325C172.279 6.2787 172.281 6.30139 172.255 6.37661C172.203 6.52348 172.093 6.65996 171.945 6.76077C171.797 6.86159 171.627 6.91702 171.466 6.91702L171.45 6.9168L171.434 6.91702C171.273 6.91702 171.103 6.86159 170.955 6.76077C170.807 6.66006 170.697 6.52348 170.646 6.37661C170.62 6.30138 170.622 6.27858 170.628 6.20325C170.633 6.13563 170.641 6.04297 170.627 5.91857C170.592 5.59633 170.409 5.30192 170.137 5.12867C170.002 5.04249 169.848 4.98773 169.69 4.96928C169.496 4.94682 169.271 5.03848 169.089 4.97711C168.803 4.88076 168.647 4.50219 168.648 4.22488C168.648 4.08773 168.648 3.95059 168.648 3.81344V3.10906L166.547 3.10906V4.17771C166.545 4.47871 166.641 4.73691 166.825 4.92446C167.025 5.12722 167.312 5.23429 167.656 5.23429C167.713 5.23429 167.77 5.2401 167.826 5.2515L167.852 5.25597C167.877 5.25921 167.908 5.26916 167.951 5.28739L167.965 5.2933C168.107 5.35008 168.232 5.44521 168.326 5.56849C168.556 5.87161 168.557 6.29567 168.328 6.59981C168.252 6.69951 168.155 6.78267 168.045 6.84046L168.035 6.84583C168.005 6.86237 167.979 6.87466 167.954 6.88327C167.943 6.88707 167.933 6.8902 167.924 6.89288L167.913 6.89602C167.831 6.92284 167.744 6.93636 167.656 6.93636C166.99 6.93636 166.543 7.34947 166.543 7.96433C166.543 8.44428 166.759 8.69331 166.941 8.81771C167.163 8.9695 167.431 9.01252 167.688 9.03622L167.705 9.03823C167.773 9.04718 167.831 9.06126 167.897 9.08518L167.928 9.09736L167.934 9.09937C168.106 9.15884 168.251 9.28033 168.341 9.4415C168.392 9.53259 168.427 9.65186 168.44 9.77716C168.445 9.82645 168.449 9.87418 168.452 9.92134C168.455 9.95722 168.458 9.99746 168.461 10.0379V10.9636H170.547V9.87361C170.547 9.59351 170.441 9.3218 170.245 9.12373C170.238 9.11658 170.231 9.10965 170.223 9.10272C170.208 9.08797 170.193 9.07545 170.182 9.0655L170.175 9.05935C169.949 8.86174 169.655 8.85649 169.44 8.85257H169.438C169.402 8.8519 169.368 8.85123 169.338 8.84978L169.306 8.84475L169.237 8.82921L169.172 8.80897L169.101 8.78081C169.028 8.74717 168.959 8.70335 168.899 8.65115L168.885 8.6393C168.691 8.46405 168.594 8.24799 168.59 7.97896C168.591 7.78671 168.652 7.60452 168.767 7.45195C168.878 7.3033 169.037 7.19265 169.213 7.14033C169.391 7.08745 169.723 7.08612 169.884 7.13776C170.175 7.23176 170.383 7.50203 170.399 7.81029C170.4 7.83578 170.399 7.86249 170.398 7.89378C170.395 7.9842 170.39 8.10805 170.442 8.26464C170.588 8.7001 170.993 8.99395 171.45 8.99597C171.907 8.99385 172.311 8.7001 172.458 8.26464C172.509 8.10816 172.505 7.98432 172.502 7.89378C172.5 7.86248 172.499 7.83566 172.501 7.81029C172.517 7.50203 172.724 7.23176 173.016 7.13776C173.176 7.08612 173.509 7.08746 173.687 7.14033C173.863 7.19264 174.021 7.30341 174.133 7.45195C174.248 7.60452 174.309 7.78671 174.309 7.97896C174.305 8.24799 174.209 8.46393 174.015 8.6393L174.001 8.65115C173.94 8.70323 173.872 8.74716 173.798 8.78081L173.728 8.80897L173.663 8.82921L173.594 8.84475L173.562 8.84978C173.532 8.85123 173.498 8.8519 173.462 8.85257H173.46C173.245 8.85649 172.951 8.86174 172.725 9.05935L172.718 9.0655C172.706 9.07545 172.692 9.08796 172.676 9.10272C172.669 9.10964 172.662 9.11669 172.655 9.12373C172.458 9.3218 172.353 9.59351 172.353 9.87361V10.9636H174.438V10.0379C174.442 9.99756 174.445 9.95722 174.448 9.92134C174.451 9.87428 174.454 9.82656 174.459 9.77715C174.473 9.65186 174.508 9.53259 174.559 9.4415C174.649 9.28032 174.793 9.15883 174.966 9.09937L174.971 9.09736L175.003 9.08518C175.069 9.06137 175.126 9.04728 175.194 9.03823L175.212 9.03622C175.468 9.01253 175.736 8.9695 175.958 8.81771C176.14 8.6933 176.357 8.44427 176.357 7.96433C176.357 7.34947 175.91 6.93636 175.244 6.93636L175.244 6.93635Z" fill="white"/>
</svg>
